<svg t="1732686715618" class="icon" viewBox="0 0 1024 1024" version="1.1" xmlns="http://www.w3.org/2000/svg" p-id="3453"
  width="200" height="200">
  <path
    d="M273.066667 0h477.866666c182.050133 0 273.066667 91.016533 273.066667 273.066667v477.866666c0 182.050133-91.016533 273.066667-273.066667 273.066667H273.066667C91.016533 1024 0 932.983467 0 750.933333V273.066667C0 91.016533 91.016533 0 273.066667 0z"
    fill="#32B357" p-id="3454"></path>
  <path
    d="M273.066667 802.133333a17.066667 17.066667 0 0 1-17.066667-17.066666v-34.133334a17.066667 17.066667 0 0 1 17.066667-17.066666h477.866666a17.066667 17.066667 0 0 1 17.066667 17.066666v34.133334a17.066667 17.066667 0 0 1-17.066667 17.066666H273.066667z m-4.949334-102.4a12.151467 12.151467 0 0 1-12.117333-12.202666v-64.375467a37.973333 37.973333 0 0 1 37.8368-38.144h95.914667a49.186133 49.186133 0 0 0 48.827733-45.346133c5.3248-69.307733-68.7616-102.4-68.7616-187.460267C369.8176 280.098133 424.277333 221.866667 512 221.866667s142.250667 58.146133 142.250667 130.338133c0 85.009067-74.103467 118.152533-68.744534 187.460267a49.1008 49.1008 0 0 0 48.810667 45.346133h95.8464A38.024533 38.024533 0 0 1 768 623.138133v64.375467a12.1344 12.1344 0 0 1-12.100267 12.202667L268.117333 699.733333z"
    fill="#FFFFFF" p-id="3455"></path>
</svg>