<svg t="1732326712933" class="icon" viewBox="0 0 1024 1024" version="1.1" xmlns="http://www.w3.org/2000/svg"
  p-id="10809" width="64" height="64">
  <path
    d="M716.8 0c169.664 0 307.2 137.536 307.2 307.2v409.6c0 169.664-137.536 307.2-307.2 307.2H307.2C137.536 1024 0 886.464 0 716.8V307.2C0 137.536 137.536 0 307.2 0h409.6zM510.1312 196.8c-70.6944 0-128 57.3056-128 128 0 62.4384 44.7104 114.4448 103.872 125.7344v41.0112h-106.8288l-2.7008 0.064c-38.72 1.5104-69.6704 35.2896-69.6704 76.7488v19.6224a115.2128 115.2128 0 1 0 48.256 5.504v-25.1264l0.064-1.92c0.9216-13.2352 11.3408-23.68 24.064-23.68h264.8448l1.792 0.064c12.4928 0.9856 22.336 12.032 22.336 25.536v24.1664a115.2 115.2 0 1 0 48.256-4.224v0.0128-19.968l-0.064-2.8672c-1.4208-41.088-33.2544-73.92-72.32-73.92H537.216V449.92c57.6896-12.4288 100.928-63.744 100.928-125.1328 0-70.6944-57.3056-128-128-128z"
    fill="#F3C03A" p-id="10810"></path>
</svg>