<svg t="1732261241464" class="icon" viewBox="0 0 1024 1024" version="1.1" xmlns="http://www.w3.org/2000/svg"
  p-id="19204" width="64" height="64">
  <path
    d="M716.8 0c169.664 0 307.2 137.536 307.2 307.2v409.6c0 169.664-137.536 307.2-307.2 307.2H307.2C137.536 1024 0 886.464 0 716.8V307.2C0 137.536 137.536 0 307.2 0h409.6z m-88.9984 288.384a241.92 241.92 0 0 0-127.9872 36.3776 242.0608 242.0608 0 0 0-128-36.3776 243.1232 243.1232 0 0 0-214.1824 127.872 38.4 38.4 0 0 0 67.5968 36.4672 166.336 166.336 0 0 1 146.5728-87.552c23.68 0 46.1952 4.9536 66.5856 13.8624a242.176 242.176 0 0 0-53.7856 152.5504c0 57.7536 20.1472 110.8224 53.7728 152.5376a165.8368 165.8368 0 0 1-66.56 13.8624c-61.9136 0-117.76-34.0736-146.6112-87.616a38.4 38.4 0 1 0-67.6096 36.4416 243.1232 243.1232 0 0 0 214.208 127.9744c46.976 0 90.8288-13.312 128-36.3776a242.0608 242.0608 0 0 0 128 36.3776c134.3232 0 243.2-108.8896 243.2-243.2 0-134.3232-108.8768-243.2-243.2-243.2z m0 76.8c91.904 0 166.4 74.496 166.4 166.4s-74.496 166.4-166.4 166.4c-23.68 0-46.1952-4.9536-66.5728-13.8624a242.176 242.176 0 0 0 53.7728-152.5376c0-57.7664-20.1344-110.8352-53.7856-152.5504a165.8368 165.8368 0 0 1 66.5856-13.8496z m-128 60.0704c23.9872 28.8256 38.4 65.8944 38.4 106.3296 0 40.4224-14.4128 77.4912-38.4 106.3168a165.7216 165.7216 0 0 1-38.4-106.3168c0-39.3984 13.696-75.584 36.5568-104.0768z"
    fill="#1677FF" p-id="19205"></path>
</svg>