<svg t="1666058092823" class="icon" viewBox="0 0 1024 1024" version="1.1" xmlns="http://www.w3.org/2000/svg" p-id="10268" width="200" height="200"><path d="M512 512m-512 0a512 512 0 1 0 1024 0 512 512 0 1 0-1024 0Z" fill="#FD846F" p-id="10269"></path><path d="M437.563077 588.937846a190.818462 190.818462 0 0 0-0.886154-1.398154 31.113846 31.113846 0 0 0-4.076308-20.40123 192.236308 192.236308 0 0 1-35.190153-69.612308 95.862154 95.862154 0 0 1-33.910154-63.468308c-2.56-39.266462 6.892308-39.266462 6.892307-39.266461-9.452308-28.553846-14.375385-111.084308 16.128-153.777231 39.542154-68.273231 109.883077-72.644923 144.009847-54.902154a108.248615 108.248615 0 0 1 56.477538 19.180308c63.606154 26.190769 68.706462 155.372308 56.989538 190.72 0 0 9.432615 0 6.892308 39.266461a95.862154 95.862154 0 0 1-33.910154 63.488 192.236308 192.236308 0 0 1-35.190154 69.612308 31.113846 31.113846 0 0 0-4.076307 20.401231 190.424615 190.424615 0 0 0-0.256 0.393846c3.800615 8.388923 10.436923 15.478154 19.081846 19.790769 94.838154 19.377231 181.543385 70.616615 181.543385 127.468308v43.342769c0 50.412308-99.072 68.371692-205.469539 73.058462a927.192615 927.192615 0 0 1-64.768 2.638769h0.768c-127.488 0-272.305231-13.508923-272.305231-74.436923V737.673846c0-56.851692 86.685538-108.110769 181.543385-127.488 9.137231-4.548923 16.029538-12.209231 19.692308-21.248z" fill="#FFFFFF" p-id="10270"></path></svg>