<svg t="1732686590792" class="icon" viewBox="0 0 1024 1024" version="1.1" xmlns="http://www.w3.org/2000/svg" p-id="3153"
  width="200" height="200">
  <path
    d="M0 0m365.714286 0l292.571428 0q365.714286 0 365.714286 365.714286l0 292.571428q0 365.714286-365.714286 365.714286l-292.571428 0q-365.714286 0-365.714286-365.714286l0-292.571428q0-365.714286 365.714286-365.714286Z"
    fill="#EA4D2C" p-id="3154"></path>
  <path
    d="M526.628571 219.428571a226.084571 226.084571 0 0 0-159.158857 64.219429 219.355429 219.355429 0 0 0-65.097143 155.428571v299.885715h446.025143v-299.885715c0-58.514286-23.625143-114.541714-65.389714-155.428571A225.206857 225.206857 0 0 0 526.628571 219.428571z m-18.432 447.634286L501.76 521.654857H391.753143l144.384-182.125714 12.288 117.321143 104.448 3.657143L506.953143 667.062857h1.243428zM219.428571 800.256a33.499429 33.499429 0 0 1 33.499429-33.792h547.401143a34.377143 34.377143 0 0 1 23.698286 9.874286 35.035429 35.035429 0 0 1 9.801142 23.917714 33.499429 33.499429 0 0 1-33.499428 33.499429H252.928A33.499429 33.499429 0 0 1 219.428571 800.329143z"
    fill="#FFFFFF" p-id="3155"></path>
</svg>