<?xml version="1.0" encoding="utf-8"?>
<!-- Generator: Adobe Illustrator 22.1.0, SVG Export Plug-In . SVG Version: 6.00 Build 0)  -->
<svg version="1.1" id="图层_1" xmlns="http://www.w3.org/2000/svg" xmlns:xlink="http://www.w3.org/1999/xlink" x="0px" y="0px"
	 viewBox="0 0 128 128" style="enable-background:new 0 0 128 128;" xml:space="preserve">
<style type="text/css">
	.st0{fill:#4BB685;}
	.st1{fill:#464E6A;}
</style>
<g>
	<path class="st0" d="M43.1,64h11c5.5,0,10-4.5,10-10V47c0-5.5-4.5-10-10-10H47c-5.5,0-10,4.5-10,10v11l0,0.2c0,1-0.4,2-1.1,2.8
		l-2,2c-0.7,0.7-1.7,1.1-2.8,1.1l-0.2,0H20c-5.5,0-10,4.5-10,10V81c0,5.5,4.5,10,10,10h11h0c1.2,0,2.3,0.5,3.1,1.3l1.7,1.7
		c0.8,0.8,1.3,1.9,1.3,3.1l0,0v11c0,5.5,4.5,10,10,10H54c5.5,0,10-4.5,10-10V101c0-5.5-4.5-10-10-10h-11h0c-1.2,0-2.3-0.5-3.1-1.3
		L38.3,88c-0.8-0.8-1.3-1.9-1.3-3.1v0V70.1l0-0.2c0-1,0.4-2,1.1-2.8l1.8-1.8C40.8,64.5,41.9,64,43.1,64L43.1,64z"/>
	<path class="st1" d="M108.1,37h-11c0,0,0,0,0,0c-1.1,0-2.1-0.4-2.9-1.1l-2-2C91.4,33.1,91,32.1,91,31c0,0,0,0,0,0v-11
		c0-5.5-4.5-9.9-9.9-9.9h-7.2c-5.5,0-9.9,4.5-9.9,9.9v7.2c0,5.5,4.5,9.9,9.9,9.9h11c0,0,0,0,0,0c1.1,0,2.1,0.4,2.9,1.1l2,2
		c0.8,0.8,1.1,1.8,1.1,2.9c0,0,0,0,0,0v14.9c0,0,0,0,0,0c0,1.1-0.4,2.1-1.1,2.9l-2,2C87.1,63.6,86.1,64,85,64c0,0,0,0,0,0h-11
		c-5.5,0-9.9,4.5-9.9,9.9v7.2c0,5.5,4.5,9.9,9.9,9.9h7.2c5.5,0,9.9-4.5,9.9-9.9v-11c0,0,0,0,0,0c0-1.1,0.4-2.1,1.1-2.9l2-2
		c0.8-0.8,1.8-1.1,2.9-1.1c0,0,0,0,0,0h11c5.5,0,9.9-4.5,9.9-9.9v-7.2C118,41.5,113.5,37,108.1,37z"/>
</g>
</svg>
